<?xml version="1.0" encoding="utf-8"?>
<!-- Generator: Adobe Illustrator 24.1.0, SVG Export Plug-In . SVG Version: 6.00 Build 0)  -->
<svg version="1.1" id="Capa_1" xmlns="http://www.w3.org/2000/svg" xmlns:xlink="http://www.w3.org/1999/xlink" x="0px" y="0px"
	 viewBox="0 0 1682.2 345.3" style="enable-background:new 0 0 1682.2 345.3;" xml:space="preserve">
<style type="text/css">
	.st0{fill:#312783;}
	.st1{fill:#E6007E;}
	.st2{fill:url(#SVGID_1_);}
	.st3{fill:url(#SVGID_2_);}
</style>
<g>
	<g>
		<g>
			<path class="st0" d="M524.9,226.5h-11.7l13.5-85.2c0.4-2.5,1-4.8,1.7-6.9c0.8-2.1,1.6-3.9,2.5-5.5c0.9-1.5,2.1-2.9,3.5-4.1
				c1.4-1.2,2.7-2.2,4-3.1c1.3-0.8,2.9-1.5,4.7-2.1c1.9-0.6,3.6-1,5.1-1.3c1.5-0.3,3.4-0.6,5.6-0.7c2.2-0.2,4.1-0.3,5.8-0.3
				s3.6-0.1,6-0.1c10.1,0,18.8,0.2,26.2,0.7l-1.5,9.4h-26.8c-3.4,0-6.3,0.1-8.6,0.3c-2.3,0.2-4.4,0.6-6.3,1.3s-3.4,1.4-4.6,2.3
				c-1.2,0.9-2.2,2.2-3.1,3.9c-0.9,1.7-1.6,3.5-2.2,5.5c-0.5,2-1,4.5-1.5,7.6l-2.8,17.9H582l-1.5,9.8H533L524.9,226.5z"/>
			<path class="st0" d="M631.1,227.6c-10.8,0-18.6-2.1-23.3-6.3c-4.8-4.2-7.2-11.2-7.2-20.9c0-4.5,0.5-9.7,1.4-15.5
				c1.2-7.9,2.9-14.5,5-19.9c2.1-5.3,4.9-9.7,8.3-13.2c3.4-3.5,7.5-6,12.2-7.5c4.7-1.5,10.4-2.3,17.1-2.3c10.7,0,18.5,2.1,23.3,6.4
				c4.8,4.3,7.2,11.3,7.2,21c0,4.1-0.5,9.2-1.4,15.3c-1.2,7.8-2.9,14.3-5,19.6c-2.1,5.3-4.8,9.7-8.3,13.2c-3.4,3.5-7.5,6-12.3,7.6
				C643.5,226.8,637.8,227.6,631.1,227.6z M611.8,199.7c0,3.6,0.4,6.5,1.1,8.9c0.7,2.4,2,4.2,3.7,5.6c1.7,1.4,3.8,2.4,6.2,3
				c2.5,0.6,5.6,0.9,9.3,0.9c4.8,0,8.8-0.5,12.1-1.6c3.3-1.1,6.1-2.9,8.6-5.5c2.4-2.6,4.4-6,5.9-10.2c1.5-4.2,2.8-9.5,3.8-15.9
				c0.9-5.8,1.4-10.7,1.4-14.5c0-6.9-1.5-11.7-4.6-14.5c-3.1-2.8-8.3-4.1-15.7-4.1c-3.2,0-6,0.2-8.4,0.6c-2.4,0.4-4.6,1.1-6.7,2.1
				c-2.1,1-3.9,2.3-5.4,3.9c-1.5,1.6-2.9,3.7-4.2,6.2c-1.2,2.5-2.3,5.4-3.2,8.7c-0.9,3.3-1.7,7.2-2.4,11.6
				C612.3,190.7,611.8,195.7,611.8,199.7z"/>
			<path class="st0" d="M707.4,226.5h-11.1l10.1-63.5c0.7-4.5,1.6-9.3,2.7-14.2c9-4.5,19.6-6.7,31.7-6.7c2.9,0,5.4,0.1,7.5,0.4
				l-2.4,9.6c-1.9-0.2-4.1-0.3-6.6-0.3c-3.3,0-6.8,0.3-10.5,1c-3.7,0.7-6.9,1.6-9.8,2.8c-0.9,4-1.7,8.4-2.4,13.1L707.4,226.5z"/>
			<path class="st0" d="M774.8,168.7l-9.1,57.8h-11.1l10-63.3c0.7-4.2,1.5-9,2.7-14.2c4.9-2,10.5-3.7,16.9-5c6.4-1.3,12.3-2,17.8-2
				c9.6,0,16.3,2.2,20,6.7c9.7-4.5,20.1-6.7,31.1-6.7c3.8,0,7.1,0.3,9.9,1c2.8,0.7,5.1,1.6,6.9,2.7c1.8,1.1,3.3,2.6,4.4,4.3
				c1.1,1.7,1.9,3.6,2.3,5.5c0.4,1.9,0.7,4.1,0.7,6.6c0,2.8-0.3,6.2-0.9,10.2l-8.6,54.1h-11.1l8.2-52.1c0.5-3.4,0.8-6.3,0.8-8.7
				c0-5-1.3-8.6-4-10.8c-2.6-2.2-7.2-3.3-13.7-3.3c-3.2,0-6.8,0.5-10.9,1.4c-4,0.9-7.8,2.3-11.4,4.1c0.3,1.7,0.4,3.4,0.4,5.2
				c0,2.8-0.3,6.1-0.9,10l-8.6,54.1h-11.1l8.2-52.1c0.5-3.3,0.8-6.2,0.8-8.6c0-5-1.3-8.6-4-10.8c-2.6-2.2-7.2-3.3-13.7-3.3
				c-2.6,0-5.9,0.4-9.9,1.2c-3.9,0.8-7.2,1.7-9.9,2.9C776.2,160.8,775.4,165.1,774.8,168.7z"/>
			<path class="st0" d="M970.8,167.4l-6.2,39.3c-0.7,4.5-1.6,9.3-2.7,14.2c-9.5,4.5-21.2,6.7-35.2,6.7c-9.8,0-16.9-1.5-21.5-4.4
				c-4.6-2.9-6.9-7.7-6.9-14.4c0-1.7,0.2-3.8,0.5-6.1c1.2-7.4,3.8-13.3,7.7-17.7c4-4.3,9.6-7.1,16.9-8.2c7.1-1.1,18.9-1.9,35.3-2.4
				l0.6-3.7c0.4-2.2,0.6-4.3,0.6-6.1c0-4.7-1.5-8-4.4-10.1c-2.9-2-8.1-3-15.3-3c-7.2,0-16.5,0.8-27.7,2.4l0.4-9
				c12.3-1.9,22.6-2.9,30.8-2.9c3.3,0,6.3,0.2,8.9,0.5c2.6,0.3,5.1,0.9,7.5,1.8c2.4,0.9,4.4,2,6,3.4c1.6,1.4,2.9,3.3,3.8,5.6
				c0.9,2.3,1.4,5,1.4,8C971.3,163.1,971.1,165.1,970.8,167.4z M929.3,218.3c8.5,0,16.1-1.3,22.7-3.7c0.9-4.2,1.7-8.5,2.4-13.1
				l2.9-18.5c-14.9,0.3-25.4,1.1-31.3,2.2c-5,1-8.7,2.7-11.1,5.2c-2.4,2.4-4.1,6.5-5,12c-0.2,1.7-0.4,3.1-0.4,4.3
				c0,4.4,1.5,7.5,4.6,9.1C917.2,217.5,922.3,218.3,929.3,218.3z"/>
			<path class="st0" d="M1075.4,117.5l-3.3,20.9h-25.3l-13.9,88.1h-25.1l14-88.1h-25.1l3.3-20.9H1075.4z"/>
			<path class="st0" d="M1083.4,143.2h23.4l-8,50.8c-0.4,2.2-0.6,4.2-0.6,5.9c0,3,0.8,5.2,2.5,6.5c1.7,1.3,4.6,1.9,8.8,1.9
				c4,0,7.4-0.5,10.2-1.6c0.8-3.1,1.6-6.8,2.3-11.2l8.3-52.3h23.3l-9.5,59.9c-0.9,5.7-2,11.2-3.3,16.4c-10.1,5.5-22.6,8.2-37.3,8.2
				c-4.6,0-8.6-0.3-12.1-1c-3.4-0.6-6.3-1.5-8.5-2.7c-2.2-1.1-4-2.6-5.3-4.4c-1.3-1.8-2.3-3.7-2.8-5.7c-0.5-2-0.8-4.3-0.8-7
				c0-3.1,0.4-6.8,1.1-11.1L1083.4,143.2z"/>
			<path class="st1" d="M1215.9,193c0-1.2-0.2-2.4-0.7-3.3c-0.5-1-1-1.8-1.7-2.5c-0.7-0.7-1.7-1.4-3-2.1c-1.3-0.7-2.6-1.2-3.7-1.7
				s-2.8-1-4.7-1.7c-2.4-0.8-4.6-1.6-6.5-2.3c-1.9-0.7-3.8-1.6-5.6-2.5c-1.9-1-3.5-1.9-4.8-2.9c-1.4-1-2.6-2.1-3.8-3.4
				c-1.2-1.3-2.1-2.7-2.9-4.1c-0.7-1.5-1.3-3.1-1.7-5c-0.4-1.8-0.6-3.8-0.6-6c0-2.2,0.2-4.6,0.6-7c0.7-4.8,2-9,3.6-12.6
				c1.7-3.6,3.8-6.6,6.2-9.1c2.5-2.4,5.4-4.4,8.9-6c3.5-1.5,7.2-2.6,11.3-3.3c4.1-0.7,8.7-1,13.8-1c10.5,0,20.9,1.2,31.1,3.7
				l-5.3,19.5c-9.7-1.7-17.7-2.6-24-2.6c-1.7,0-3.1,0-4.3,0.1c-1.2,0-2.6,0.2-4.3,0.4c-1.7,0.2-3.1,0.5-4.3,0.9
				c-1.2,0.4-2.3,1-3.5,1.6c-1.2,0.7-2.1,1.6-2.8,2.7c-0.7,1.1-1.2,2.4-1.4,3.9c-0.1,0.8-0.2,1.6-0.2,2.4c0,1.1,0.1,2,0.4,2.9
				c0.3,0.8,0.7,1.6,1.4,2.2c0.6,0.7,1.3,1.2,2.1,1.7c0.8,0.5,1.8,1,3,1.4c1.2,0.5,2.4,0.9,3.6,1.3c1.2,0.4,2.7,0.8,4.4,1.3
				c0.1,0,0.2,0.1,0.3,0.1c0.1,0,0.1,0,0.3,0.1c0.1,0,0.2,0.1,0.3,0.1c8.8,2.5,15.1,5.7,18.9,9.7c3.8,3.9,5.8,9.3,5.8,16.1
				c0,2.3-0.2,5.1-0.7,8.3c-1,6.1-2.7,11.3-5.1,15.6c-2.4,4.3-5.6,7.8-9.6,10.4c-3.9,2.6-8.4,4.5-13.5,5.7c-5,1.2-10.8,1.8-17.4,1.8
				c-10.6,0-21.1-1.2-31.4-3.7l5.6-20c11,1.7,20.3,2.6,28.1,2.6c5.4,0,9.4-0.8,12.3-2.5c2.8-1.7,4.6-4.6,5.2-8.8
				C1215.8,194.5,1215.9,193.7,1215.9,193z"/>
			<path class="st1" d="M1335.1,169.5l-5.3,33.6c-0.9,5.6-2,11-3.3,16.4c-9.9,5.5-22.5,8.2-37.8,8.2c-9.9,0-17.1-1.7-21.6-5
				s-6.8-8.5-6.8-15.5c0-2.1,0.2-4.3,0.6-6.7c1.2-7.7,4-13.8,8.4-18.2c4.3-4.4,10.7-7.3,19.2-8.7c5.4-0.9,13.2-1.5,23.6-2
				c0.2-1.1,0.2-2,0.2-2.7c0-2.7-0.9-4.7-2.7-5.9c-1.8-1.2-4.6-1.8-8.5-1.8c-8.2,0-18.1,0.8-29.6,2.2l0.9-18.1
				c12.7-2.2,23.8-3.3,33.2-3.3c3.5,0,6.7,0.2,9.5,0.6c2.9,0.4,5.6,1.1,8.2,2.1c2.6,1,4.8,2.3,6.6,3.8s3.2,3.6,4.2,6.1
				c1,2.5,1.6,5.4,1.6,8.7C1335.6,165.1,1335.4,167.1,1335.1,169.5z M1293.8,188.9c-2.2,0.5-3.8,1.2-5.1,1.9c-1.2,0.7-2.2,1.8-3,3.3
				c-0.8,1.5-1.4,3.5-1.8,6.1c-0.1,0.7-0.2,1.5-0.2,2.2c0,2.5,0.8,4.3,2.5,5.3c1.7,1,4.2,1.5,7.6,1.5c4.9,0,8.8-0.5,11.8-1.6
				c0.8-2.7,1.5-6.5,2.3-11.2l1.5-9.2c-0.2,0-1,0-2.5,0.1c-1.4,0.1-2.4,0.2-2.8,0.2c-0.5,0-1.3,0.1-2.5,0.2
				c-1.2,0.1-2.2,0.2-2.8,0.3c-0.7,0.1-1.5,0.2-2.4,0.4C1295.5,188.6,1294.6,188.7,1293.8,188.9z"/>
			<path class="st1" d="M1355.4,205.7l15-94.7h23.5l-14.6,92.4c-0.3,2.2-0.5,4.2-0.5,5.9c0,3.9,1,7.9,3.1,11.8l-22.6,10
				c-3.2-4.6-4.7-10.2-4.7-16.5C1354.6,212,1354.9,209,1355.4,205.7z"/>
			<path class="st1" d="M1417,143.2h23.4l-8,50.8c-0.4,2.2-0.6,4.2-0.6,5.9c0,3,0.8,5.2,2.5,6.5c1.7,1.3,4.6,1.9,8.8,1.9
				c4,0,7.4-0.5,10.2-1.6c0.8-3.1,1.6-6.8,2.3-11.2l8.3-52.3h23.3l-9.5,59.9c-0.9,5.7-2,11.2-3.3,16.4c-10.1,5.5-22.6,8.2-37.3,8.2
				c-4.6,0-8.6-0.3-12.1-1c-3.4-0.6-6.3-1.5-8.5-2.7c-2.2-1.1-4-2.6-5.3-4.4c-1.3-1.8-2.3-3.7-2.8-5.7c-0.5-2-0.8-4.3-0.8-7
				c0-3.1,0.4-6.8,1.1-11.1L1417,143.2z"/>
			<path class="st1" d="M1560.6,143.3l5.1-32.3h23.5l-14.6,92.1c-0.9,5.6-2,11-3.3,16.4c-4.8,2.7-10.3,4.8-16.5,6.2
				c-6.2,1.4-12.3,2-18.5,2c-5.9,0-10.9-0.5-15-1.4c-4.1-0.9-7.6-2.5-10.5-4.7c-2.9-2.2-5-5.1-6.3-8.7c-1.3-3.6-2-8-2-13.3
				c0-4.4,0.4-9.3,1.3-14.7c1-6.5,2.4-12.1,4.1-16.9c1.7-4.8,3.8-8.8,6.2-12.2c2.4-3.3,5.3-6,8.6-8c3.3-2,7-3.5,11-4.4
				c4-0.9,8.6-1.3,13.8-1.3C1552,142,1556.3,142.5,1560.6,143.3z M1548.8,161.2c-1.9,0-3.6,0.1-5.2,0.4c-1.6,0.3-3,0.6-4.2,1
				c-1.2,0.4-2.3,1-3.3,1.7c-1,0.8-1.9,1.5-2.6,2.2c-0.7,0.7-1.4,1.7-2,2.9c-0.6,1.2-1.1,2.2-1.5,3.2c-0.4,1-0.8,2.2-1.1,3.7
				c-0.4,1.5-0.6,2.8-0.8,4c-0.2,1.1-0.4,2.6-0.7,4.4c-0.7,4.9-1.1,8.5-1.1,10.7c0,2,0.2,3.7,0.6,5.2s1.1,2.9,2,4.1
				c1,1.2,2.3,2.2,4.1,2.8c1.8,0.6,3.9,1,6.4,1c4.2,0,7.8-0.5,10.6-1.6c0.8-3.3,1.6-7,2.2-11.2l5.2-33.3
				C1554.7,161.6,1551.8,161.2,1548.8,161.2z"/>
		</g>
	</g>
	<g>
		<linearGradient id="SVGID_1_" gradientUnits="userSpaceOnUse" x1="162.5785" y1="363.1704" x2="385.0075" y2="45.0609">
			<stop  offset="0.1629" style="stop-color:#02A8E2"/>
			<stop  offset="0.3213" style="stop-color:#3F60AE"/>
			<stop  offset="0.4374" style="stop-color:#66338C"/>
			<stop  offset="0.4955" style="stop-color:#75217F"/>
			<stop  offset="0.7204" style="stop-color:#D7338C"/>
		</linearGradient>
		<path class="st2" d="M302.7,77.9l-1.5,5.4c-0.5,1.7,0,3.5,1.1,4.8c23.1,27.9,33.6,64,29.6,99.5c-0.1,0.9-0.2,1.8-0.3,2.6
			c-0.1,0.6-0.1,1.1-0.2,1.7c-0.2,1.6-0.5,3.3-0.8,4.9c0,0.1-0.1,0.3-0.1,0.4c-0.3,1.8-0.7,3.7-1.2,5.5c0,0,0,0.1,0,0.1
			c-0.4,1.8-0.9,3.7-1.4,5.5c-0.1,0.2-0.1,0.4-0.2,0.6c-0.3,1.2-0.7,2.3-1,3.5c-3.4,10.9-8.3,21.5-14.8,31.6
			c-4.7,7.4-10.1,14.2-15.9,20.3c-4.8,4.9-10.1,9.5-15.8,13.7c-8.4,6.2-17.1,11.4-25.9,15.5c-17.6,7.8-36.5,11.7-55.3,11.7
			c-20.9-0.2-42-5.3-61.4-15.7c-1.6-0.8-3.5-0.1-4.1,1.6l-1.7,4.9c-0.5,1.4,0.1,2.9,1.4,3.5c13.6,7.2,28,12,42.5,14.6
			c20.6,3.9,40.9,3,60.7-2.6c33.8-8.8,64.5-29.9,84.7-61.6C356.6,194.4,349,123.7,307,76.9C305.6,75.4,303.2,76,302.7,77.9z"/>
		<linearGradient id="SVGID_2_" gradientUnits="userSpaceOnUse" x1="70.2774" y1="300.693" x2="296.4856" y2="-22.8212">
			<stop  offset="0.1629" style="stop-color:#02A8E2"/>
			<stop  offset="0.3213" style="stop-color:#3F60AE"/>
			<stop  offset="0.4374" style="stop-color:#66338C"/>
			<stop  offset="0.4955" style="stop-color:#75217F"/>
			<stop  offset="0.7204" style="stop-color:#D7338C"/>
		</linearGradient>
		<path class="st3" d="M162.7,236.1c16.2,3.6,32.3,7.2,48.5,10.8c4.2,0.9,8.3,1.9,12.5,2.8c13.7,3,22.8-2.8,25.9-16.4
			c2.7-11.8,5.2-23.6,7.8-35.3c3.4-15.2-2.2-24.2-17.3-27.5c-16.3-3.6-32.5-7.2-48.8-10.8c-6.3-1.4-12.6-2.9-19-4.3
			c-7.3-1.7-8.5-3.5-7-10.6c1-4.6,2-9.3,3.1-13.9c0.3-1.4,0.7-2.9,1-4.3c1.9-8.1,3.4-9.1,11.4-7.3c22.7,5,45.5,10.1,68.2,15.1
			c14,3.1,23-2.6,26.2-16.8c2.2-9.8,10.1-43.7,12.6-54.5c0.5-2-0.3-4.1-2-5.3c-2.7-2-5.4-3.8-8.5-5.7c-15.4-9.8-32-16.4-48.9-19.8
			c-24.9-5.5-49.3-4.1-73,4.2C114.4,49.4,80.4,81,64.8,124.9c-21.1,59.1-0.4,125.1,47.9,161.8c1.6,1.2,3.9,0.3,4.3-1.6
			c1.1-5.6,3.1-15.7,4.7-22.7C126.2,241.4,141.8,231.5,162.7,236.1z M144.2,210.4c-0.3-0.1-0.5-0.1-0.8-0.2c0,0,0,0.1,0,0.1
			c-9.8,0.2-16.3,6.1-18.9,17.6c-2.9,12.6-5.5,25.2-8.3,37.8c-0.5,2.2-1.2,4.4-1.9,6.8c-0.1,0.3-0.5,0.4-0.7,0.2l-4.3-3.6
			C63.8,226.4,53.7,156,88.5,101.4c39.4-61.7,121.3-79.8,183-40.4c1.8,1.1,3.5,2.3,5.2,3.5c0,0,0,0,0,0c4.5,4,4.6,3.8,1.4,18.5
			c-6.7,30.6-17.3,31.9-41.1,26.1c-16.1-3.9-32.3-7.2-48.5-10.8c-4.2-0.9-8.3-1.9-12.5-2.8c-13.7-3-22.8,2.8-25.9,16.4
			c-2.7,11.8-5.2,23.6-7.8,35.3c-3.4,15.2,2.2,24.2,17.3,27.5c16.3,3.6,32.5,7.2,48.8,10.8c6.3,1.4,12.6,2.9,19,4.3
			c7.3,1.7,8.5,3.5,7,10.6c-1,4.6-2,9.3-3.1,13.9c-0.3,1.4-0.7,2.9-1,4.3c-1.9,8.1-3.4,9.1-11.4,7.3c-22.7-5-45.5-10.1-68.2-15.1
			C148.4,210.6,146.2,210.4,144.2,210.4z"/>
	</g>
</g>
<rect x="424.9" y="31.4" class="st0" width="8.7" height="284.6"/>
</svg>
