<svg width="1534" height="288" viewBox="0 0 1534 288" fill="none" xmlns="http://www.w3.org/2000/svg">
<path d="M468.9 197.5H457.2L470.7 112.3C471.1 109.8 471.7 107.5 472.4 105.4C473.2 103.3 474 101.5 474.9 99.9C475.8 98.4 477 97 478.4 95.8C479.8 94.6 481.1 93.6 482.4 92.7C483.7 91.9 485.3 91.2 487.1 90.6C489 90 490.7 89.6 492.2 89.3C493.7 89 495.6 88.7 497.8 88.6C500 88.4 501.9 88.3 503.6 88.3C505.3 88.3 507.2 88.2 509.6 88.2C519.7 88.2 528.4 88.4 535.8 88.9L534.3 98.3H507.5C504.1 98.3 501.2 98.4 498.9 98.6C496.6 98.8 494.5 99.2 492.6 99.9C490.7 100.6 489.2 101.3 488 102.2C486.8 103.1 485.8 104.4 484.9 106.1C484 107.8 483.3 109.6 482.7 111.6C482.2 113.6 481.7 116.1 481.2 119.2L478.4 137.1H526L524.5 146.9H477L468.9 197.5Z" fill="white"/>
<path d="M575.1 198.6C564.3 198.6 556.5 196.5 551.8 192.3C547 188.1 544.6 181.1 544.6 171.4C544.6 166.9 545.1 161.7 546 155.9C547.2 148 548.9 141.4 551 136C553.1 130.7 555.9 126.3 559.3 122.8C562.7 119.3 566.8 116.8 571.5 115.3C576.2 113.8 581.9 113 588.6 113C599.3 113 607.1 115.1 611.9 119.4C616.7 123.7 619.1 130.7 619.1 140.4C619.1 144.5 618.6 149.6 617.7 155.7C616.5 163.5 614.8 170 612.7 175.3C610.6 180.6 607.9 185 604.4 188.5C601 192 596.9 194.5 592.1 196.1C587.5 197.8 581.8 198.6 575.1 198.6ZM555.8 170.7C555.8 174.3 556.2 177.2 556.9 179.6C557.6 182 558.9 183.8 560.6 185.2C562.3 186.6 564.4 187.6 566.8 188.2C569.3 188.8 572.4 189.1 576.1 189.1C580.9 189.1 584.9 188.6 588.2 187.5C591.5 186.4 594.3 184.6 596.8 182C599.2 179.4 601.2 176 602.7 171.8C604.2 167.6 605.5 162.3 606.5 155.9C607.4 150.1 607.9 145.2 607.9 141.4C607.9 134.5 606.4 129.7 603.3 126.9C600.2 124.1 595 122.8 587.6 122.8C584.4 122.8 581.6 123 579.2 123.4C576.8 123.8 574.6 124.5 572.5 125.5C570.4 126.5 568.6 127.8 567.1 129.4C565.6 131 564.2 133.1 562.9 135.6C561.7 138.1 560.6 141 559.7 144.3C558.8 147.6 558 151.5 557.3 155.9C556.3 161.7 555.8 166.7 555.8 170.7Z" fill="white"/>
<path d="M651.4 197.5H640.3L650.4 134C651.1 129.5 652 124.7 653.1 119.8C662.1 115.3 672.7 113.1 684.8 113.1C687.7 113.1 690.2 113.2 692.3 113.5L689.9 123.1C688 122.9 685.8 122.8 683.3 122.8C680 122.8 676.5 123.1 672.8 123.8C669.1 124.5 665.9 125.4 663 126.6C662.1 130.6 661.3 135 660.6 139.7L651.4 197.5Z" fill="white"/>
<path d="M718.8 139.7L709.7 197.5H698.6L708.6 134.2C709.3 130 710.1 125.2 711.3 120C716.2 118 721.8 116.3 728.2 115C734.6 113.7 740.5 113 746 113C755.6 113 762.3 115.2 766 119.7C775.7 115.2 786.1 113 797.1 113C800.9 113 804.2 113.3 807 114C809.8 114.7 812.1 115.6 813.9 116.7C815.7 117.8 817.2 119.3 818.3 121C819.4 122.7 820.2 124.6 820.6 126.5C821 128.4 821.3 130.6 821.3 133.1C821.3 135.9 821 139.3 820.4 143.3L811.8 197.4H800.7L808.9 145.3C809.4 141.9 809.7 139 809.7 136.6C809.7 131.6 808.4 128 805.7 125.8C803.1 123.6 798.5 122.5 792 122.5C788.8 122.5 785.2 123 781.1 123.9C777.1 124.8 773.3 126.2 769.7 128C770 129.7 770.1 131.4 770.1 133.2C770.1 136 769.8 139.3 769.2 143.2L760.6 197.3H749.5L757.7 145.2C758.2 141.9 758.5 139 758.5 136.6C758.5 131.6 757.2 128 754.5 125.8C751.9 123.6 747.3 122.5 740.8 122.5C738.2 122.5 734.9 122.9 730.9 123.7C727 124.5 723.7 125.4 721 126.6C720.2 131.8 719.4 136.1 718.8 139.7Z" fill="white"/>
<path d="M914.8 138.4L908.6 177.7C907.9 182.2 907 187 905.9 191.9C896.4 196.4 884.7 198.6 870.7 198.6C860.9 198.6 853.8 197.1 849.2 194.2C844.6 191.3 842.3 186.5 842.3 179.8C842.3 178.1 842.5 176 842.8 173.7C844 166.3 846.6 160.4 850.5 156C854.5 151.7 860.1 148.9 867.4 147.8C874.5 146.7 886.3 145.9 902.7 145.4L903.3 141.7C903.7 139.5 903.9 137.4 903.9 135.6C903.9 130.9 902.4 127.6 899.5 125.5C896.6 123.5 891.4 122.5 884.2 122.5C877 122.5 867.7 123.3 856.5 124.9L856.9 115.9C869.2 114 879.5 113 887.7 113C891 113 894 113.2 896.6 113.5C899.2 113.8 901.7 114.4 904.1 115.3C906.5 116.2 908.5 117.3 910.1 118.7C911.7 120.1 913 122 913.9 124.3C914.8 126.6 915.3 129.3 915.3 132.3C915.3 134.1 915.1 136.1 914.8 138.4ZM873.3 189.3C881.8 189.3 889.4 188 896 185.6C896.9 181.4 897.7 177.1 898.4 172.5L901.3 154C886.4 154.3 875.9 155.1 870 156.2C865 157.2 861.3 158.9 858.9 161.4C856.5 163.8 854.8 167.9 853.9 173.4C853.7 175.1 853.5 176.5 853.5 177.7C853.5 182.1 855 185.2 858.1 186.8C861.2 188.5 866.3 189.3 873.3 189.3Z" fill="white"/>
<path d="M1019.4 88.5L1016.1 109.4H990.8L976.9 197.5H951.8L965.8 109.4H940.7L944 88.5H1019.4Z" fill="white"/>
<path d="M1027.4 114.2H1050.8L1042.8 165C1042.4 167.2 1042.2 169.2 1042.2 170.9C1042.2 173.9 1043 176.1 1044.7 177.4C1046.4 178.7 1049.3 179.3 1053.5 179.3C1057.5 179.3 1060.9 178.8 1063.7 177.7C1064.5 174.6 1065.3 170.9 1066 166.5L1074.3 114.2H1097.6L1088.1 174.1C1087.2 179.8 1086.1 185.3 1084.8 190.5C1074.7 196 1062.2 198.7 1047.5 198.7C1042.9 198.7 1038.9 198.4 1035.4 197.7C1032 197.1 1029.1 196.2 1026.9 195C1024.7 193.9 1022.9 192.4 1021.6 190.6C1020.3 188.8 1019.3 186.9 1018.8 184.9C1018.3 182.9 1018 180.6 1018 177.9C1018 174.8 1018.4 171.1 1019.1 166.8L1027.4 114.2Z" fill="white"/>
<path d="M1159.9 164C1159.9 162.8 1159.7 161.6 1159.2 160.7C1158.7 159.7 1158.2 158.9 1157.5 158.2C1156.8 157.5 1155.8 156.8 1154.5 156.1C1153.2 155.4 1151.9 154.9 1150.8 154.4C1149.7 153.9 1148 153.4 1146.1 152.7C1143.7 151.9 1141.5 151.1 1139.6 150.4C1137.7 149.7 1135.8 148.8 1134 147.9C1132.1 146.9 1130.5 146 1129.2 145C1127.8 144 1126.6 142.9 1125.4 141.6C1124.2 140.3 1123.3 138.9 1122.5 137.5C1121.8 136 1121.2 134.4 1120.8 132.5C1120.4 130.7 1120.2 128.7 1120.2 126.5C1120.2 124.3 1120.4 121.9 1120.8 119.5C1121.5 114.7 1122.8 110.5 1124.4 106.9C1126.1 103.3 1128.2 100.3 1130.6 97.8C1133.1 95.4 1136 93.4 1139.5 91.8C1143 90.3 1146.7 89.2 1150.8 88.5C1154.9 87.8 1159.5 87.5 1164.6 87.5C1175.1 87.5 1185.5 88.7 1195.7 91.2L1190.4 110.7C1180.7 109 1172.7 108.1 1166.4 108.1C1164.7 108.1 1163.3 108.1 1162.1 108.2C1160.9 108.2 1159.5 108.4 1157.8 108.6C1156.1 108.8 1154.7 109.1 1153.5 109.5C1152.3 109.9 1151.2 110.5 1150 111.1C1148.8 111.8 1147.9 112.7 1147.2 113.8C1146.5 114.9 1146 116.2 1145.8 117.7C1145.7 118.5 1145.6 119.3 1145.6 120.1C1145.6 121.2 1145.7 122.1 1146 123C1146.3 123.8 1146.7 124.6 1147.4 125.2C1148 125.9 1148.7 126.4 1149.5 126.9C1150.3 127.4 1151.3 127.9 1152.5 128.3C1153.7 128.8 1154.9 129.2 1156.1 129.6C1157.3 130 1158.8 130.4 1160.5 130.9C1160.6 130.9 1160.7 131 1160.8 131C1160.9 131 1160.9 131 1161.1 131.1C1161.2 131.1 1161.3 131.2 1161.4 131.2C1170.2 133.7 1176.5 136.9 1180.3 140.9C1184.1 144.8 1186.1 150.2 1186.1 157C1186.1 159.3 1185.9 162.1 1185.4 165.3C1184.4 171.4 1182.7 176.6 1180.3 180.9C1177.9 185.2 1174.7 188.7 1170.7 191.3C1166.8 193.9 1162.3 195.8 1157.2 197C1152.2 198.2 1146.4 198.8 1139.8 198.8C1129.2 198.8 1118.7 197.6 1108.4 195.1L1114 175.1C1125 176.8 1134.3 177.7 1142.1 177.7C1147.5 177.7 1151.5 176.9 1154.4 175.2C1157.2 173.5 1159 170.6 1159.6 166.4C1159.8 165.5 1159.9 164.7 1159.9 164Z" fill="white"/>
<path d="M1279.1 140.5L1273.8 174.1C1272.9 179.7 1271.8 185.1 1270.5 190.5C1260.6 196 1248 198.7 1232.7 198.7C1222.8 198.7 1215.6 197 1211.1 193.7C1206.6 190.4 1204.3 185.2 1204.3 178.2C1204.3 176.1 1204.5 173.9 1204.9 171.5C1206.1 163.8 1208.9 157.7 1213.3 153.3C1217.6 148.9 1224 146 1232.5 144.6C1237.9 143.7 1245.7 143.1 1256.1 142.6C1256.3 141.5 1256.3 140.6 1256.3 139.9C1256.3 137.2 1255.4 135.2 1253.6 134C1251.8 132.8 1249 132.2 1245.1 132.2C1236.9 132.2 1227 133 1215.5 134.4L1216.4 116.3C1229.1 114.1 1240.2 113 1249.6 113C1253.1 113 1256.3 113.2 1259.1 113.6C1262 114 1264.7 114.7 1267.3 115.7C1269.9 116.7 1272.1 118 1273.9 119.5C1275.7 121 1277.1 123.1 1278.1 125.6C1279.1 128.1 1279.7 131 1279.7 134.3C1279.6 136.1 1279.4 138.1 1279.1 140.5ZM1237.8 159.9C1235.6 160.4 1234 161.1 1232.7 161.8C1231.5 162.5 1230.5 163.6 1229.7 165.1C1228.9 166.6 1228.3 168.6 1227.9 171.2C1227.8 171.9 1227.7 172.7 1227.7 173.4C1227.7 175.9 1228.5 177.7 1230.2 178.7C1231.9 179.7 1234.4 180.2 1237.8 180.2C1242.7 180.2 1246.6 179.7 1249.6 178.6C1250.4 175.9 1251.1 172.1 1251.9 167.4L1253.4 158.2C1253.2 158.2 1252.4 158.2 1250.9 158.3C1249.5 158.4 1248.5 158.5 1248.1 158.5C1247.6 158.5 1246.8 158.6 1245.6 158.7C1244.4 158.8 1243.4 158.9 1242.8 159C1242.1 159.1 1241.3 159.2 1240.4 159.4C1239.5 159.6 1238.6 159.7 1237.8 159.9Z" fill="white"/>
<path d="M1299.4 176.7L1314.4 82H1337.9L1323.3 174.4C1323 176.6 1322.8 178.6 1322.8 180.3C1322.8 184.2 1323.8 188.2 1325.9 192.1L1303.3 202.1C1300.1 197.5 1298.6 191.9 1298.6 185.6C1298.6 183 1298.9 180 1299.4 176.7Z" fill="white"/>
<path d="M1361 114.2H1384.4L1376.4 165C1376 167.2 1375.8 169.2 1375.8 170.9C1375.8 173.9 1376.6 176.1 1378.3 177.4C1380 178.7 1382.9 179.3 1387.1 179.3C1391.1 179.3 1394.5 178.8 1397.3 177.7C1398.1 174.6 1398.9 170.9 1399.6 166.5L1407.9 114.2H1431.2L1421.7 174.1C1420.8 179.8 1419.7 185.3 1418.4 190.5C1408.3 196 1395.8 198.7 1381.1 198.7C1376.5 198.7 1372.5 198.4 1369 197.7C1365.6 197.1 1362.7 196.2 1360.5 195C1358.3 193.9 1356.5 192.4 1355.2 190.6C1353.9 188.8 1352.9 186.9 1352.4 184.9C1351.9 182.9 1351.6 180.6 1351.6 177.9C1351.6 174.8 1352 171.1 1352.7 166.8L1361 114.2Z" fill="white"/>
<path d="M1504.6 114.3L1509.7 82H1533.2L1518.6 174.1C1517.7 179.7 1516.6 185.1 1515.3 190.5C1510.5 193.2 1505 195.3 1498.8 196.7C1492.6 198.1 1486.5 198.7 1480.3 198.7C1474.4 198.7 1469.4 198.2 1465.3 197.3C1461.2 196.4 1457.7 194.8 1454.8 192.6C1451.9 190.4 1449.8 187.5 1448.5 183.9C1447.2 180.3 1446.5 175.9 1446.5 170.6C1446.5 166.2 1446.9 161.3 1447.8 155.9C1448.8 149.4 1450.2 143.8 1451.9 139C1453.6 134.2 1455.7 130.2 1458.1 126.8C1460.5 123.5 1463.4 120.8 1466.7 118.8C1470 116.8 1473.7 115.3 1477.7 114.4C1481.7 113.5 1486.3 113.1 1491.5 113.1C1496 113 1500.3 113.5 1504.6 114.3ZM1492.8 132.2C1490.9 132.2 1489.2 132.3 1487.6 132.6C1486 132.9 1484.6 133.2 1483.4 133.6C1482.2 134 1481.1 134.6 1480.1 135.3C1479.1 136.1 1478.2 136.8 1477.5 137.5C1476.8 138.2 1476.1 139.2 1475.5 140.4C1474.9 141.6 1474.4 142.6 1474 143.6C1473.6 144.6 1473.2 145.8 1472.9 147.3C1472.5 148.8 1472.3 150.1 1472.1 151.3C1471.9 152.4 1471.7 153.9 1471.4 155.7C1470.7 160.6 1470.3 164.2 1470.3 166.4C1470.3 168.4 1470.5 170.1 1470.9 171.6C1471.3 173.1 1472 174.5 1472.9 175.7C1473.9 176.9 1475.2 177.9 1477 178.5C1478.8 179.1 1480.9 179.5 1483.4 179.5C1487.6 179.5 1491.2 179 1494 177.9C1494.8 174.6 1495.6 170.9 1496.2 166.7L1501.4 133.4C1498.7 132.6 1495.8 132.2 1492.8 132.2Z" fill="white"/>
<path d="M246.7 48.9L245.2 54.3C244.7 56 245.2 57.8 246.3 59.1C269.4 87 279.9 123.1 275.9 158.6C275.8 159.5 275.7 160.4 275.6 161.2C275.5 161.8 275.5 162.3 275.4 162.9C275.2 164.5 274.9 166.2 274.6 167.8C274.6 167.9 274.5 168.1 274.5 168.2C274.2 170 273.8 171.9 273.3 173.7V173.8C272.9 175.6 272.4 177.5 271.9 179.3C271.8 179.5 271.8 179.7 271.7 179.9C271.4 181.1 271 182.2 270.7 183.4C267.3 194.3 262.4 204.9 255.9 215C251.2 222.4 245.8 229.2 240 235.3C235.2 240.2 229.9 244.8 224.2 249C215.8 255.2 207.1 260.4 198.3 264.5C180.7 272.3 161.8 276.2 143 276.2C122.1 276 101 270.9 81.6 260.5C80 259.7 78.1 260.4 77.5 262.1L75.8 267C75.3 268.4 75.9 269.9 77.2 270.5C90.8 277.7 105.2 282.5 119.7 285.1C140.3 289 160.6 288.1 180.4 282.5C214.2 273.7 244.9 252.6 265.1 220.9C300.6 165.4 293 94.7 251 47.9C249.6 46.4 247.2 47 246.7 48.9Z" fill="white"/>
<path d="M106.7 207.1C122.9 210.7 139 214.3 155.2 217.9C159.4 218.8 163.5 219.8 167.7 220.7C181.4 223.7 190.5 217.9 193.6 204.3C196.3 192.5 198.8 180.7 201.4 169C204.8 153.8 199.2 144.8 184.1 141.5C167.8 137.9 151.6 134.3 135.3 130.7C129 129.3 122.7 127.8 116.3 126.4C109 124.7 107.8 122.9 109.3 115.8C110.3 111.2 111.3 106.5 112.4 101.9C112.7 100.5 113.1 99 113.4 97.6C115.3 89.5 116.8 88.5 124.8 90.3C147.5 95.3 170.3 100.4 193 105.4C207 108.5 216 102.8 219.2 88.6C221.4 78.8 229.3 44.9 231.8 34.1C232.3 32.1 231.5 30 229.8 28.8C227.1 26.8 224.4 25 221.3 23.1C205.9 13.3 189.3 6.70001 172.4 3.30001C147.5 -2.19999 123.1 -0.799993 99.4 7.50001C58.4 20.4 24.4 52 8.79999 95.9C-12.3 155 8.39998 221 56.7 257.7C58.3 258.9 60.6 258 61 256.1C62.1 250.5 64.1 240.4 65.7 233.4C70.2 212.4 85.8 202.5 106.7 207.1ZM88.2 181.4C87.9 181.3 87.7 181.3 87.4 181.2V181.3C77.6 181.5 71.1 187.4 68.5 198.9C65.6 211.5 63 224.1 60.2 236.7C59.7 238.9 59 241.1 58.3 243.5C58.2 243.8 57.8 243.9 57.6 243.7L53.3 240.1C7.79999 197.4 -2.30001 127 32.5 72.4C71.9 10.7 153.8 -7.39999 215.5 32C217.3 33.1 219 34.3 220.7 35.5C225.2 39.5 225.3 39.3 222.1 54C215.4 84.6 204.8 85.9 181 80.1C164.9 76.2 148.7 72.9 132.5 69.3C128.3 68.4 124.2 67.4 120 66.5C106.3 63.5 97.2 69.3 94.1 82.9C91.4 94.7 88.9 106.5 86.3 118.2C82.9 133.4 88.5 142.4 103.6 145.7C119.9 149.3 136.1 152.9 152.4 156.5C158.7 157.9 165 159.4 171.4 160.8C178.7 162.5 179.9 164.3 178.4 171.4C177.4 176 176.4 180.7 175.3 185.3C175 186.7 174.6 188.2 174.3 189.6C172.4 197.7 170.9 198.7 162.9 196.9C140.2 191.9 117.4 186.8 94.7 181.8C92.4 181.6 90.2 181.4 88.2 181.4Z" fill="white"/>
<path d="M377.6 2.40002H368.9V287H377.6V2.40002Z" fill="white"/>
</svg>
